<?xml version="1.0" encoding="UTF-8" standalone="no"?>
<svg width="800" height="500" viewBox="0 0 800 500" xmlns="http://www.w3.org/2000/svg">
  <!-- Background Elements -->
  <defs>
    <linearGradient id="purpleGradient" x1="0%" y1="0%" x2="100%" y2="100%">
      <stop offset="0%" style="stop-color:#6750A4;stop-opacity:0.1"/>
      <stop offset="100%" style="stop-color:#8B7DD8;stop-opacity:0.3"/>
    </linearGradient>
    <filter id="shadow" x="-20%" y="-20%" width="140%" height="140%">
      <feGaussianBlur in="SourceAlpha" stdDeviation="5"/>
      <feOffset dx="0" dy="10" result="offsetblur"/>
      <feComponentTransfer>
        <feFuncA type="linear" slope="0.3"/>
      </feComponentTransfer>
      <feMerge>
        <feMergeNode/>
        <feMergeNode in="SourceGraphic"/>
      </feMerge>
    </filter>
    <clipPath id="screenClip">
      <rect x="0" y="0" width="240" height="520" rx="20" ry="20"/>
    </clipPath>
    <clipPath id="tabletScreenClip">
      <rect x="0" y="0" width="360" height="480" rx="10" ry="10"/>
    </clipPath>
    <clipPath id="laptopScreenClip">
      <rect x="0" y="0" width="500" height="312" rx="5" ry="5"/>
    </clipPath>
  </defs>

  <!-- Background Shape -->
  <rect width="800" height="500" fill="#FFFFFF"/>
  <path d="M0,250 Q400,150 800,300 L800,500 L0,500 Z" fill="url(#purpleGradient)"/>
  
  <!-- Laptop -->
  <g transform="translate(100, 150)" filter="url(#shadow)">
    <!-- Laptop Base -->
    <rect x="0" y="312" width="600" height="20" rx="5" ry="5" fill="#333333"/>
    <path d="M50,312 L550,312 L570,332 L30,332 Z" fill="#444444"/>
    
    <!-- Laptop Screen Frame -->
    <rect x="50" y="0" width="500" height="312" rx="10" ry="10" fill="#333333"/>
    
    <!-- Laptop Screen -->
    <rect x="60" y="10" width="480" height="292" rx="5" ry="5" fill="#FFFFFF"/>
    
    <!-- Screen Content -->
    <g transform="translate(60, 10)">
      <rect width="480" height="292" rx="5" ry="5" fill="#F5F5F5"/>
      
      <!-- App Header -->
      <rect width="480" height="50" fill="#6750A4"/>
      <circle cx="25" cy="25" r="15" fill="#FFFFFF" opacity="0.9"/>
      <text x="50" y="30" font-family="Arial, sans-serif" font-size="16" fill="#FFFFFF" font-weight="bold">TaskSwap</text>
      
      <!-- App Content -->
      <g transform="translate(20, 70)">
        <!-- Task List -->
        <rect width="440" height="60" rx="8" ry="8" fill="#FFFFFF" stroke="#E0E0E0" stroke-width="1"/>
        <rect x="15" y="15" width="30" height="30" rx="15" ry="15" fill="#6750A4" opacity="0.2"/>
        <rect x="60" y="15" width="200" height="12" rx="2" ry="2" fill="#333333"/>
        <rect x="60" y="35" width="150" height="8" rx="2" ry="2" fill="#666666"/>
        <rect x="380" y="20" width="40" height="20" rx="10" ry="10" fill="#6750A4"/>
        
        <rect y="70" width="440" height="60" rx="8" ry="8" fill="#FFFFFF" stroke="#E0E0E0" stroke-width="1"/>
        <rect x="15" y="85" width="30" height="30" rx="15" ry="15" fill="#6750A4" opacity="0.2"/>
        <rect x="60" y="85" width="180" height="12" rx="2" ry="2" fill="#333333"/>
        <rect x="60" y="105" width="130" height="8" rx="2" ry="2" fill="#666666"/>
        <rect x="380" y="90" width="40" height="20" rx="10" ry="10" fill="#6750A4"/>
        
        <rect y="140" width="440" height="60" rx="8" ry="8" fill="#FFFFFF" stroke="#E0E0E0" stroke-width="1"/>
        <rect x="15" y="155" width="30" height="30" rx="15" ry="15" fill="#6750A4" opacity="0.2"/>
        <rect x="60" y="155" width="220" height="12" rx="2" ry="2" fill="#333333"/>
        <rect x="60" y="175" width="170" height="8" rx="2" ry="2" fill="#666666"/>
        <rect x="380" y="160" width="40" height="20" rx="10" ry="10" fill="#6750A4"/>
      </g>
    </g>
  </g>
  
  <!-- Tablet -->
  <g transform="translate(550, 180)" filter="url(#shadow)">
    <!-- Tablet Frame -->
    <rect x="0" y="0" width="380" height="500" rx="20" ry="20" fill="#333333"/>
    <rect x="10" y="10" width="360" height="480" rx="10" ry="10" fill="#FFFFFF"/>
    <circle cx="190" cy="490" r="15" fill="#444444"/>
    
    <!-- Screen Content -->
    <g transform="translate(10, 10)" clip-path="url(#tabletScreenClip)">
      <rect width="360" height="480" fill="#F5F5F5"/>
      
      <!-- App Header -->
      <rect width="360" height="60" fill="#6750A4"/>
      <circle cx="30" cy="30" r="18" fill="#FFFFFF" opacity="0.9"/>
      <text x="60" y="35" font-family="Arial, sans-serif" font-size="18" fill="#FFFFFF" font-weight="bold">TaskSwap</text>
      
      <!-- Profile Section -->
      <rect y="60" width="360" height="120" fill="#8B7DD8" opacity="0.7"/>
      <circle cx="70" cy="120" r="40" fill="#FFFFFF"/>
      <text x="140" y="110" font-family="Arial, sans-serif" font-size="20" fill="#FFFFFF" font-weight="bold">John Doe</text>
      <text x="140" y="140" font-family="Arial, sans-serif" font-size="16" fill="#FFFFFF">1250 Aura Points</text>
      
      <!-- Stats Section -->
      <g transform="translate(20, 200)">
        <rect width="320" height="80" rx="10" ry="10" fill="#FFFFFF"/>
        <text x="20" y="30" font-family="Arial, sans-serif" font-size="16" fill="#333333" font-weight="bold">Weekly Progress</text>
        
        <!-- Progress Bars -->
        <rect x="20" y="45" width="280" height="10" rx="5" ry="5" fill="#EEEEEE"/>
        <rect x="20" y="45" width="210" height="10" rx="5" ry="5" fill="#6750A4"/>
      </g>
      
      <!-- Task Categories -->
      <g transform="translate(20, 300)">
        <rect width="150" height="80" rx="10" ry="10" fill="#FFFFFF"/>
        <circle cx="40" cy="30" r="15" fill="#6750A4" opacity="0.2"/>
        <text x="75" y="35" font-family="Arial, sans-serif" font-size="14" fill="#333333" font-weight="bold">Work</text>
        <text x="75" y="55" font-family="Arial, sans-serif" font-size="12" fill="#666666">15 Tasks</text>
        
        <rect x="170" y="0" width="150" height="80" rx="10" ry="10" fill="#FFFFFF"/>
        <circle cx="210" cy="30" r="15" fill="#6750A4" opacity="0.2"/>
        <text x="245" y="35" font-family="Arial, sans-serif" font-size="14" fill="#333333" font-weight="bold">Health</text>
        <text x="245" y="55" font-family="Arial, sans-serif" font-size="12" fill="#666666">8 Tasks</text>
        
        <rect y="100" width="150" height="80" rx="10" ry="10" fill="#FFFFFF"/>
        <circle cx="40" cy="130" r="15" fill="#6750A4" opacity="0.2"/>
        <text x="75" y="135" font-family="Arial, sans-serif" font-size="14" fill="#333333" font-weight="bold">Learning</text>
        <text x="75" y="155" font-family="Arial, sans-serif" font-size="12" fill="#666666">12 Tasks</text>
        
        <rect x="170" y="100" width="150" height="80" rx="10" ry="10" fill="#FFFFFF"/>
        <circle cx="210" cy="130" r="15" fill="#6750A4" opacity="0.2"/>
        <text x="245" y="135" font-family="Arial, sans-serif" font-size="14" fill="#333333" font-weight="bold">Personal</text>
        <text x="245" y="155" font-family="Arial, sans-serif" font-size="12" fill="#666666">7 Tasks</text>
      </g>
    </g>
  </g>
  
  <!-- Phone -->
  <g transform="translate(280, 100)" filter="url(#shadow)">
    <!-- Phone Frame -->
    <rect x="0" y="0" width="240" height="520" rx="30" ry="30" fill="#333333"/>
    <rect x="10" y="10" width="220" height="500" rx="25" ry="25" fill="#FFFFFF"/>
    <rect x="95" y="35" width="50" height="10" rx="5" ry="5" fill="#444444"/>
    <circle cx="120" cy="490" r="20" fill="#444444"/>
    
    <!-- Screen Content -->
    <g transform="translate(10, 10)" clip-path="url(#screenClip)">
      <rect width="220" height="500" fill="#F5F5F5"/>
      
      <!-- App Header -->
      <rect width="220" height="50" fill="#6750A4"/>
      <circle cx="25" cy="25" r="15" fill="#FFFFFF" opacity="0.9"/>
      <text x="50" y="30" font-family="Arial, sans-serif" font-size="14" fill="#FFFFFF" font-weight="bold">TaskSwap</text>
      
      <!-- Task List -->
      <g transform="translate(15, 65)">
        <rect width="190" height="70" rx="10" ry="10" fill="#FFFFFF"/>
        <rect x="15" y="15" width="25" height="25" rx="12.5" ry="12.5" fill="#6750A4" opacity="0.2"/>
        <rect x="50" y="15" width="120" height="10" rx="2" ry="2" fill="#333333"/>
        <rect x="50" y="30" width="90" height="6" rx="2" ry="2" fill="#666666"/>
        <rect x="50" y="45" width="60" height="6" rx="2" ry="2" fill="#999999"/>
        
        <rect y="80" width="190" height="70" rx="10" ry="10" fill="#FFFFFF"/>
        <rect x="15" y="95" width="25" height="25" rx="12.5" ry="12.5" fill="#6750A4" opacity="0.2"/>
        <rect x="50" y="95" width="100" height="10" rx="2" ry="2" fill="#333333"/>
        <rect x="50" y="110" width="80" height="6" rx="2" ry="2" fill="#666666"/>
        <rect x="50" y="125" width="70" height="6" rx="2" ry="2" fill="#999999"/>
        
        <rect y="160" width="190" height="70" rx="10" ry="10" fill="#FFFFFF"/>
        <rect x="15" y="175" width="25" height="25" rx="12.5" ry="12.5" fill="#6750A4" opacity="0.2"/>
        <rect x="50" y="175" width="110" height="10" rx="2" ry="2" fill="#333333"/>
        <rect x="50" y="190" width="85" height="6" rx="2" ry="2" fill="#666666"/>
        <rect x="50" y="205" width="65" height="6" rx="2" ry="2" fill="#999999"/>
        
        <rect y="240" width="190" height="70" rx="10" ry="10" fill="#FFFFFF"/>
        <rect x="15" y="255" width="25" height="25" rx="12.5" ry="12.5" fill="#6750A4" opacity="0.2"/>
        <rect x="50" y="255" width="105" height="10" rx="2" ry="2" fill="#333333"/>
        <rect x="50" y="270" width="75" height="6" rx="2" ry="2" fill="#666666"/>
        <rect x="50" y="285" width="55" height="6" rx="2" ry="2" fill="#999999"/>
        
        <rect y="320" width="190" height="70" rx="10" ry="10" fill="#FFFFFF"/>
        <rect x="15" y="335" width="25" height="25" rx="12.5" ry="12.5" fill="#6750A4" opacity="0.2"/>
        <rect x="50" y="335" width="115" height="10" rx="2" ry="2" fill="#333333"/>
        <rect x="50" y="350" width="95" height="6" rx="2" ry="2" fill="#666666"/>
        <rect x="50" y="365" width="75" height="6" rx="2" ry="2" fill="#999999"/>
      </g>
      
      <!-- Add Task Button -->
      <circle cx="170" cy="450" r="25" fill="#6750A4"/>
      <text x="170" y="455" font-family="Arial, sans-serif" font-size="24" fill="#FFFFFF" text-anchor="middle">+</text>
    </g>
  </g>
  
  <!-- App Logo Floating -->
  <g transform="translate(400, 50)">
    <circle cx="0" cy="0" r="40" fill="#6750A4" opacity="0.9" filter="url(#shadow)"/>
    <circle cx="0" cy="0" r="30" fill="#FFFFFF" opacity="0.9"/>
    <path d="M0,-20 L10,0 L30,5 L15,20 L20,40 L0,30 L-20,40 L-15,20 L-30,5 L-10,0 Z" fill="#6750A4" opacity="0.9"/>
    <circle cx="0" cy="0" r="10" fill="#FFFFFF"/>
  </g>
</svg>
